<!-- SVG Sprite -->
<svg width="0" height="0" class="hidden">
  <symbol fill="none" xmlns="http://www.w3.org/2000/svg" viewBox="0 0 24 24" id="dashboard">
    <g stroke-width="2">
      <path d="M22 10.9V4.1C22 2.6 21.36 2 19.77 2H15.73C14.14 2 13.5 2.6 13.5 4.1V10.9C13.5 12.4 14.14 13 15.73 13H19.77C21.36 13 22 12.4 22 10.9Z" stroke-linecap="round" stroke-linejoin="round"></path>
      <path d="M22 19.9V18.1C22 16.6 21.36 16 19.77 16H15.73C14.14 16 13.5 16.6 13.5 18.1V19.9C13.5 21.4 14.14 22 15.73 22H19.77C21.36 22 22 21.4 22 19.9Z" stroke-linecap="round" stroke-linejoin="round"></path>
      <path d="M10.5 13.1V19.9C10.5 21.4 9.86 22 8.27 22H4.23C2.64 22 2 21.4 2 19.9V13.1C2 11.6 2.64 11 4.23 11H8.27C9.86 11 10.5 11.6 10.5 13.1Z" stroke-linecap="round" stroke-linejoin="round"></path>
      <path d="M10.5 4.1V5.9C10.5 7.4 9.86 8 8.27 8H4.23C2.64 8 2 7.4 2 5.9V4.1C2 2.6 2.64 2 4.23 2H8.27C9.86 2 10.5 2.6 10.5 4.1Z" stroke-linecap="round" stroke-linejoin="round"></path>
    </g>
  </symbol>
  <symbol version="1.1" id="users" xmlns="http://www.w3.org/2000/svg" xmlns:xlink="http://www.w3.org/1999/xlink" xml:space="preserve" viewBox="0 0 492.308 492.308">
    <g stroke-width="15">
		<path d="M492.308,356.865c0-73.547-41.636-138.937-107.13-170.163c12.648-17.293,19.591-38.065,19.591-59.789 c0-55.808-45.404-101.212-101.212-101.212c-47.137,0-87.701,32.655-98.438,77.484c-5.339-0.874-10.778-1.446-16.361-1.446 c-55.875,0-101.327,45.404-101.327,101.212c0,18.39,4.895,35.939,14.126,51.531C41.148,277.487,0,336.246,0,401.779v64.827h377.51 v-64.827c0-3.766-0.201-7.496-0.468-11.212h115.266V356.865z M303.558,45.394c44.952,0,81.519,36.567,81.519,81.519 c0,21.048-7.981,41.058-22.288,56.135l-0.471,0.471l6.962,6.961l-7.058-6.865c-15.625,16.077-36.462,24.933-58.663,24.933 c-4.611,0-9.206-0.536-13.772-1.321c0.058-1.425,0.175-2.839,0.175-4.275c0-43.355-27.448-80.322-65.839-94.71 C232.59,71.909,265.407,45.394,303.558,45.394z M188.76,121.433c44.942,0,81.51,36.567,81.51,81.519 c0,18.529-6.077,36.058-17.567,50.683c-5.837,7.377-12.763,13.573-20.462,18.438c-0.507,0.32-1.057,0.564-1.57,0.873 c-2.085,1.254-4.186,2.483-6.373,3.541c-1.196,0.579-2.457,1.013-3.68,1.532c-1.566,0.664-3.102,1.395-4.709,1.96 c-2.447,0.861-4.961,1.544-7.493,2.169c-0.43,0.106-0.841,0.269-1.273,0.368c-2.918,0.669-5.886,1.17-8.891,1.517 c-0.062,0.007-0.121,0.025-0.183,0.031c-3.068,0.347-6.175,0.523-9.31,0.523c-3.144,0-6.261-0.176-9.337-0.523 c-18.457-2.082-35.484-10.309-48.55-23.459c-2.174-2.189-4.238-4.514-6.18-6.969c-11.49-14.625-17.567-32.154-17.567-50.683 C107.125,158,143.75,121.433,188.76,121.433z M357.817,446.914H19.692v-45.135c0-59.173,38.327-112.048,93.962-130.731 c0.557,0.615,1.182,1.144,1.751,1.743c1.17,1.232,2.373,2.415,3.596,3.58c1.457,1.388,2.942,2.73,4.471,4.022 c1.281,1.082,2.575,2.133,3.903,3.147c1.594,1.217,3.225,2.366,4.883,3.483c1.37,0.921,2.739,1.832,4.15,2.683 c1.728,1.044,3.499,1.998,5.285,2.934c1.435,0.752,2.86,1.514,4.33,2.196c1.873,0.87,3.793,1.624,5.718,2.377 c1.463,0.572,2.907,1.177,4.398,1.681c2.057,0.695,4.162,1.248,6.267,1.81c1.427,0.381,2.831,0.822,4.278,1.141 c2.371,0.523,4.79,0.873,7.209,1.227c1.234,0.18,2.444,0.445,3.689,0.581c3.686,0.401,7.412,0.627,11.175,0.627 c3.755,0,7.474-0.225,11.153-0.627c1.23-0.134,2.425-0.397,3.644-0.575c2.428-0.355,4.855-0.709,7.236-1.234 c1.429-0.315,2.815-0.752,4.225-1.129c2.118-0.566,4.234-1.124,6.305-1.825c1.469-0.497,2.891-1.095,4.333-1.659 c1.946-0.761,3.885-1.525,5.777-2.405c1.443-0.671,2.841-1.421,4.251-2.16c1.811-0.95,3.605-1.918,5.357-2.978 c1.386-0.838,2.731-1.734,4.077-2.639c1.678-1.13,3.328-2.294,4.94-3.528c1.312-1.003,2.591-2.043,3.857-3.114 c1.538-1.3,3.033-2.651,4.499-4.049c1.218-1.162,2.414-2.34,3.579-3.567c0.571-0.602,1.199-1.134,1.758-1.752 c55.692,18.596,94.067,71.471,94.067,130.74V446.914z M472.615,370.875h-98.317c-10.623-52.624-47.683-97.167-98.45-116.406 c5.147-8.697,8.95-17.996,11.28-27.731c5.448,0.899,10.929,1.502,16.43,1.502c25.249,0,48.99-9.297,67.694-26.152 c61.737,26.877,101.364,86.911,101.364,154.777V370.875z"></path>
    </g>
  </symbol>
  <symbol xmlns="http://www.w3.org/2000/svg" viewBox="0 0 64 64" id="claims">
    <g transform="translate(0.000000,64.000000) scale(0.100000,-0.100000)">
      <path d="M225 608 c-11 -6 -32 -24 -47 -40 -20 -22 -35 -28 -68 -28 l-42 0 3 -117 c5 -158 25 -201 150 -315 50 -46 95 -83 100 -83 5 0 49 37 98 82 124 115 145 158 150 316 l3 117 -42 0 c-33 0 -48 6 -68 28 -15 16 -37 34 -49 40 -28 15 -162 15 -188 0z m60 -68 c23 -26 43 -25 72 2 l23 22 42 -40 c90 -85 89 -83 85 -149 -4 -78 -29 -128 -93 -190 -45 -42 -59 -49 -94 -50 -37 -1 -47 4 -99 56 -65 63 -91 121 -91 199 0 44 4 50 62 108 35 34 65 62 69 62 3 0 14 -9 24 -20z"></path>
      <path d="M297 494 c-4 -4 -7 -13 -7 -20 0 -7 -11 -24 -25 -38 -33 -33 -33 -79 0 -111 13 -14 33 -25 44 -25 25 0 37 -18 21 -33 -9 -9 -14 -8 -24 6 -7 9 -25 17 -40 17 -34 0 -35 -32 -2 -65 14 -13 26 -32 28 -42 5 -24 51 -24 56 0 2 10 14 29 28 42 32 32 32 78 -1 110 -13 14 -33 25 -44 25 -25 0 -37 18 -21 33 9 9 14 8 24 -5 7 -10 25 -18 40 -18 34 0 35 32 2 65 -14 13 -26 32 -28 42 -3 18 -38 30 -51 17z"></path>
      <path d="M186 365 c-10 -28 -7 -70 8 -91 13 -17 14 -13 11 39 -4 63 -9 77 -19 52z"></path>
      <path d="M440 380 c0 -3 -2 -32 -5 -65 -3 -54 -2 -58 11 -41 16 23 18 74 4 96 -5 8 -10 13 -10 10z"></path>
    </g>
  </symbol>
  <symbol version="1.1" id="pages" xmlns="http://www.w3.org/2000/svg" xmlns:xlink="http://www.w3.org/1999/xlink" xml:space="preserve" stroke-width="10" viewBox="0 0 490 490">
    <g>
       <path d="M489.976,110c-0.001-2.602-0.993-5.158-2.905-7.071l-100-100c-1.913-1.912-4.47-2.903-7.071-2.904V0H110 c-5.523,0-10,4.477-10,10v50H10C4.477,60,0,64.478,0,70v355c0,5.522,4.477,10,10,10h90v45c0,5.522,4.477,10,10,10h370 c5.523,0,10-4.478,10-10V110H489.976z M390,34.143L455.858,100H390V34.143z M20,415V80h172.5v67.5c0,5.523,4.477,10,10,10H270 V415H20z M212.5,137.5V94.143l43.357,43.357H212.5z M470,470H120v-35h160c5.523,0,10-4.478,10-10V147.5 c0-2.652-1.054-5.195-2.929-7.071l-77.5-77.5C207.696,61.054,205.152,60,202.5,60H120V20h250v90c0,5.522,4.477,10,10,10h90V470z"></path>
       <rect x="310" y="160" width="130" height="20"></rect>
       <rect x="310" y="220" width="130" height="20"></rect>
       <rect x="310" y="280" width="130" height="20"></rect>
       <rect x="310" y="340" width="130" height="20"></rect>
       <rect x="310" y="400" width="130" height="20"></rect>
       <rect x="45" y="105" width="65" height="20"></rect>
       <rect x="45" y="145" width="65" height="20"></rect>
       <rect x="45" y="205" width="200" height="20"></rect>
       <rect x="45" y="255" width="200" height="20"></rect>
       <rect x="45" y="305" width="200" height="20"></rect>
       <rect x="45" y="355" width="200" height="20"></rect>          
    </g>
  </symbol>
  <symbol xmlns="http://www.w3.org/2000/svg" viewBox="0 0 24 24" id="settings">
    <g stroke-width="0">
      <path d="M12,8a4,4,0,1,0,4,4A4,4,0,0,0,12,8Zm0,6a2,2,0,1,1,2-2A2,2,0,0,1,12,14Zm8.99-5L19.415,9c-.008-.022-.036-.107-.046-.129l1.11-1.11a2.011,2.011,0,0,0,0-2.842l-1.4-1.4a2,2,0,0,0-1.421-.588h0a2,2,0,0,0-1.419.588L15.07,4.612,15,4.58V3.009A2.011,2.011,0,0,0,12.99,1H11.01A2.011,2.011,0,0,0,9,3.009L9,4.566l-.086.049-.043.016L7.765,3.522a2,2,0,0,0-1.42-.589h0a2,2,0,0,0-1.421.588l-1.4,1.4a2.011,2.011,0,0,0,0,2.842l1.1,1.143c-.013.029-.033.063-.043.093H3.01A2.011,2.011,0,0,0,1,11.009v1.982A2.011,2.011,0,0,0,3.01,15l1.575,0c.008.022.036.107.046.129l-1.11,1.11a2.011,2.011,0,0,0,0,2.842l1.4,1.4a2.059,2.059,0,0,0,2.842,0l1.115-1.115c.022.011.1.047.121.056v1.571A2.011,2.011,0,0,0,11.01,23h1.98A2.011,2.011,0,0,0,15,20.991l0-1.557.129-.065,1.109,1.109a2.058,2.058,0,0,0,2.843,0l1.4-1.4a2.011,2.011,0,0,0,0-2.842l-1.1-1.143c.013-.029.033-.063.043-.093H20.99A2.011,2.011,0,0,0,23,12.991V11.009A2.011,2.011,0,0,0,20.99,9Zm0,4H19.421a2.1,2.1,0,0,0-1.466,3.54l1.109,1.124-1.414,1.4-1.11-1.109A2.1,2.1,0,0,0,13,19.42L12.99,21,11,20.991V19.42a2.043,2.043,0,0,0-1.307-1.881,2.138,2.138,0,0,0-.816-.164,2,2,0,0,0-1.417.58L6.336,19.064l-1.4-1.414,1.108-1.108A2.1,2.1,0,0,0,4.579,13L3,12.991,3.01,11H4.579A2.1,2.1,0,0,0,6.045,7.46L4.936,6.336l1.414-1.4L7.46,6.045a2.04,2.04,0,0,0,2.227.419l.018-.007A2.04,2.04,0,0,0,11,4.58L11.01,3,13,3.009V4.58a2,2,0,0,0,1.227,1.845c.026.013.057.027.087.039a2.038,2.038,0,0,0,2.226-.419l1.124-1.109,1.4,1.414L17.956,7.458A2.1,2.1,0,0,0,19.421,11H20.99l.01.009Z"></path>
    </g>
  </symbol>
  <symbol xmlns="http://www.w3.org/2000/svg" id="coins" viewBox="0 0 512 512" xml:space="preserve">
    <g> <path d="M437.019,74.98C388.667,26.628,324.38,0,256,0S123.333,26.628,74.98,74.98C26.628,123.333,0,187.619,0,256 c0,68.381,26.628,132.668,74.98,181.02C123.333,485.372,187.619,512,256,512c68.381,0,132.668-26.628,181.02-74.98 S512,324.381,512,256S485.371,123.333,437.019,74.98z M415.511,415.511c-42.606,42.606-99.255,66.072-159.511,66.072 c-60.255,0-116.904-23.465-159.511-66.072C53.883,372.903,30.417,316.255,30.417,256S53.882,139.096,96.489,96.489 C139.097,53.883,195.745,30.417,256,30.417s116.904,23.465,159.511,66.072c42.606,42.607,66.072,99.255,66.072,159.511 S458.117,372.904,415.511,415.511z"/>
	</g>
	<g> <path d="M83.238,256.191l-30.417,0.034c0.016,14.22,1.511,28.423,4.442,42.213l29.753-6.325 C84.522,280.387,83.251,268.301,83.238,256.191z"/>
	</g>
	<g> <path d="M70.242,173.566c-5.758,12.957-10.156,26.561-13.073,40.436l29.766,6.258c2.477-11.783,6.213-23.336,11.103-34.34 L70.242,173.566z"/>
	</g>
	<g> <path d="M98.192,326.425l-27.769,12.413c5.773,12.913,12.936,25.274,21.293,36.737l24.579-17.919 C109.189,347.909,103.098,337.4,98.192,326.425z"/>
	</g>
	<g> <path d="M119.838,105.195c-10.513,9.498-20.059,20.123-28.373,31.578l24.617,17.867c7.075-9.749,15.199-18.791,24.148-26.876 L119.838,105.195z"/>
	</g>
	<g> <path d="M140.497,384.478l-20.343,22.613c10.543,9.485,22.101,17.882,34.353,24.959l15.214-26.339 C159.3,399.692,149.468,392.548,140.497,384.478z"/>
	</g>
	<g> <path d="M234.451,53.95l3.191,30.249c11.915-1.255,24.222-1.276,36.143-0.058l3.092-30.26 C262.877,52.45,248.445,52.474,234.451,53.95z"/>
	</g>
	<g> <path d="M441.484,172.955l-27.756,12.444c4.927,10.988,8.699,22.528,11.216,34.298l29.745-6.358 C451.726,199.479,447.283,185.891,441.484,172.955z"/>
	</g>
	<g> <path d="M192.907,62.81c-13.459,4.393-26.505,10.232-38.777,17.356l15.271,26.306c10.428-6.052,21.512-11.014,32.944-14.745 L192.907,62.81z"/>
	</g>
	<g> <path d="M413.883,326.255c-4.897,10.987-10.98,21.504-18.077,31.261l24.596,17.894c8.347-11.473,15.502-23.846,21.263-36.772 L413.883,326.255z"/>
	</g>
	<g> <path d="M318.458,62.606l-9.342,28.947c11.446,3.695,22.547,8.619,32.996,14.64l15.186-26.355 C345.002,72.752,331.933,66.954,318.458,62.606z"/>
	</g>
	<g> <path d="M371.629,384.365c-8.962,8.077-18.785,15.229-29.196,21.259l15.241,26.323c12.242-7.088,23.788-15.496,34.321-24.989 L371.629,384.365z"/>
	</g>
	<g> <path d="M391.677,104.758l-20.319,22.635c8.972,8.053,17.126,17.069,24.232,26.795l24.56-17.945 C411.798,124.814,402.218,114.221,391.677,104.758z"/>
	</g>
	<g> <path d="M202.701,420.388l-9.376,28.937c13.461,4.362,27.447,7.312,41.572,8.77l3.125-30.256 C226.018,426.599,214.134,424.092,202.701,420.388z"/>
	</g>
	<g> <path d="M428.761,255.636V256c0,12.109-1.257,24.197-3.738,35.927l29.76,6.292c2.916-13.794,4.395-27.999,4.395-42.164v-0.526 L428.761,255.636z"/>
	</g>
	<g> <path d="M309.472,420.333c-11.428,3.715-23.307,6.234-35.306,7.487l3.158,30.253c14.12-1.474,28.099-4.439,41.553-8.814 L309.472,420.333z"/>
	</g>
	<g> <path d="M291.729,279.374c0,14.264-8.405,26.598-20.52,32.321v-111.39c12.115,5.724,20.52,18.057,20.52,32.321h30.417 c0-31.238-21.775-57.47-50.938-64.362V132.69h-30.417v35.575c-29.163,6.892-50.938,33.123-50.938,64.362v46.747 c0,31.238,21.775,57.47,50.938,64.362v35.575h30.417v-35.575c29.163-6.892,50.938-33.123,50.938-64.362H291.729z M240.791,311.695 c-12.115-5.724-20.52-18.058-20.52-32.321v-46.747c0-14.264,8.405-26.598,20.52-32.321V311.695z"/>
	</g>
  </symbol>
  <symbol xmlns="http://www.w3.org/2000/svg" id="price" viewBox="0 0 122.88 106.5">
      <defs><style>.cls-1{fill-rule:evenodd; stroke-width:0;}</style></defs>
      <path class="cls-1" d="M19.39,64.84v39.84a1.84,1.84,0,0,1-1.83,1.82H1.83A1.83,1.83,0,0,1,0,104.68V64.84ZM0,51.83,41.59,15.44c9.21,9,18.14,19.93,27.25,28.93L102.07,11,91.37.28,122.88,0V31.78L112.61,21.51c-7.37,7.47-24.8,23.92-32.17,31.3-9.33,9.32-13.78,9.49-23.1.17L41.59,35.46,23.13,51.83ZM114.37,38.69v66a1.84,1.84,0,0,1-1.82,1.82H96.81A1.84,1.84,0,0,1,95,104.68V57.29c3-2.91,6.5-6.29,10.07-9.73l7.45-7.17a24.16,24.16,0,0,1,1.87-1.7ZM82.71,68.34v36.34a1.84,1.84,0,0,1-1.83,1.82H65.15a1.84,1.84,0,0,1-1.83-1.82V72.22a22.48,22.48,0,0,0,5.73.63,24,24,0,0,0,13.66-4.51Zm-31.66-3v39.29a1.84,1.84,0,0,1-1.83,1.82H33.48a1.83,1.83,0,0,1-1.82-1.82V62q.48-.36.93-.75l7.86-7,6.34,7,.49.51q1.92,1.93,3.77,3.52Z"/>
  </symbol>
  <symbol xmlns="http://www.w3.org/2000/svg" id="dashboard_white" viewBox="0 0 24 24">
      <path d="M8.5 3h-3a2.5 2.5 0 0 0 0 5h3a2.5 2.5 0 0 0 0-5zm0 4h-3a1.5 1.5 0 0 1 0-3h3a1.5 1.5 0 0 1 0 3zm0 3h-3A2.5 2.5 0 0 0 3 12.5v6A2.5 2.5 0 0 0 5.5 21h3a2.5 2.5 0 0 0 2.5-2.5v-6A2.5 2.5 0 0 0 8.5 10zm1.5 8.5A1.5 1.5 0 0 1 8.5 20h-3A1.5 1.5 0 0 1 4 18.5v-6A1.5 1.5 0 0 1 5.5 11h3a1.5 1.5 0 0 1 1.5 1.5zm8.5-2.5h-3a2.5 2.5 0 0 0 0 5h3a2.5 2.5 0 0 0 0-5zm0 4h-3a1.5 1.5 0 0 1 0-3h3a1.5 1.5 0 0 1 0 3zm0-17h-3A2.5 2.5 0 0 0 13 5.5v6a2.5 2.5 0 0 0 2.5 2.5h3a2.5 2.5 0 0 0 2.5-2.5v-6A2.5 2.5 0 0 0 18.5 3zm1.5 8.5a1.5 1.5 0 0 1-1.5 1.5h-3a1.5 1.5 0 0 1-1.5-1.5v-6A1.5 1.5 0 0 1 15.5 4h3A1.5 1.5 0 0 1 20 5.5z"></path>
  </symbol>
  <symbol xmlns="http://www.w3.org/2000/svg" viewBox="0 0 24 24" id="editprofile">
    <g stroke-width="0">
      <path d="M2,21H8a1,1,0,0,0,0-2H3.071A7.011,7.011,0,0,1,10,13a5.044,5.044,0,1,0-3.377-1.337A9.01,9.01,0,0,0,1,20,1,1,0,0,0,2,21ZM10,5A3,3,0,1,1,7,8,3,3,0,0,1,10,5ZM20.207,9.293a1,1,0,0,0-1.414,0l-6.25,6.25a1.011,1.011,0,0,0-.241.391l-1.25,3.75A1,1,0,0,0,12,21a1.014,1.014,0,0,0,.316-.051l3.75-1.25a1,1,0,0,0,.391-.242l6.25-6.25a1,1,0,0,0,0-1.414Zm-5,8.583-1.629.543.543-1.629L19.5,11.414,20.586,12.5Z"></path>
    </g>
  </symbol>
  <symbol version="1.1" id="addpage" xmlns="http://www.w3.org/2000/svg" xml:space="preserve" viewBox="0 0 370.32 370.32">
    <g>
      <path d="M316.242,223.775h-10.051v-10.051c0-14.585-6.906-27.579-17.611-35.91V73.703 c0-3.934-1.561-7.705-4.344-10.483L225.361,4.34C222.576,1.562,218.811,0,214.877,0H37.691C21.639,0,8.58,13.061,8.58,29.113 v312.095c0,16.054,13.058,29.112,29.111,29.112h221.777h1.225c25.088,0,45.498-20.41,45.498-45.498v-10.051h10.051 c25.088,0,45.498-20.41,45.498-45.498S341.33,223.775,316.242,223.775z M40.193,337.907V32.414h154.088v43.577 c0,10.554,8.555,19.106,19.105,19.106h43.58v73.294c-23.35,1.903-41.771,21.501-41.771,45.333v10.051h-10.051 c-25.088,0-45.498,20.41-45.498,45.498s20.41,45.498,45.498,45.498h10.051v10.051c0,4.548,0.678,8.939,1.926,13.085H40.193z M316.107,289.205h-35.051v35.051c0,11.303-9.195,20.498-20.498,20.498c-11.303,0-20.498-9.195-20.498-20.498v-35.051H205.01 c-11.303,0-20.498-9.195-20.498-20.498c0-11.303,9.195-20.498,20.498-20.498h35.051v-35.051c0-11.303,9.195-20.498,20.498-20.498 c11.303,0,20.498,9.195,20.498,20.498v35.051h35.051c11.303,0,20.498,9.195,20.498,20.498 C336.605,280.01,327.41,289.205,316.107,289.205z"></path>
    </g>
  </symbol>
  <symbol fill="none" xmlns="http://www.w3.org/2000/svg" viewBox="0 0 24 24" id="close">
    <g stroke-width="1.5" >
      <path d="M9.16998 14.83L14.83 9.17004" stroke-linecap="round" stroke-linejoin="round"></path>
      <path d="M14.83 14.83L9.16998 9.17004" stroke-linecap="round" stroke-linejoin="round"></path>
      <path d="M9 22H15C20 22 22 20 22 15V9C22 4 20 2 15 2H9C4 2 2 4 2 9V15C2 20 4 22 9 22Z" stroke-linecap="round" stroke-linejoin="round"></path>
    </g>
  </symbol>
  <symbol fill="none" xmlns="http://www.w3.org/2000/svg" viewBox="0 0 24 24" id="edit">
    <g stroke-width="2">
      <path id="Vector" d="M4 20.0001H20M4 20.0001V16.0001L12 8.00012M4 20.0001L8 20.0001L16 12.0001M12 8.00012L14.8686 5.13146L14.8704 5.12976C15.2652 4.73488 15.463 4.53709 15.691 4.46301C15.8919 4.39775 16.1082 4.39775 16.3091 4.46301C16.5369 4.53704 16.7345 4.7346 17.1288 5.12892L18.8686 6.86872C19.2646 7.26474 19.4627 7.46284 19.5369 7.69117C19.6022 7.89201 19.6021 8.10835 19.5369 8.3092C19.4628 8.53736 19.265 8.73516 18.8695 9.13061L18.8686 9.13146L16 12.0001M12 8.00012L16 12.0001" stroke-linecap="round" stroke-linejoin="round"></path>
    </g>
  </symbol>
  <symbol xmlns="http://www.w3.org/2000/svg" viewBox="0 0 24 24" id="deleteuser">
    <g stroke-width="0">
      <path d="M2,21h8a1,1,0,0,0,0-2H3.071A7.011,7.011,0,0,1,10,13a5.044,5.044,0,1,0-3.377-1.337A9.01,9.01,0,0,0,1,20,1,1,0,0,0,2,21ZM10,5A3,3,0,1,1,7,8,3,3,0,0,1,10,5ZM23,16a1,1,0,0,1-1,1H15a1,1,0,0,1,0-2h7A1,1,0,0,1,23,16Z"></path>
    </g>
  </symbol>
  <symbol id="addclaim" xmlns="http://www.w3.org/2000/svg" viewBox="0 0 100.23 122.88">
    <path d="M29.71,8.68h7A9.35,9.35,0,0,1,55.4,8.57l8.24.11a1,1,0,0,1,1,1v9.94a1,1,0,0,1-1,1H29.72a1,1,0,0,1-1-1V9.71a1,1,0,0,1,1-1ZM64,114.45a3.71,3.71,0,0,1,.57,1.94c0,3.58-5.55,6.49-12.38,6.49S39.76,120,39.76,116.39a3.82,3.82,0,0,1,.56-1.94c1.58,2.63,6.27,4.55,11.82,4.55s10.24-1.92,11.81-4.55Zm35.58-3.07a4.6,4.6,0,0,1,.7,2.38c0,4.39-6.8,8-15.17,8s-15.17-3.57-15.17-8a4.64,4.64,0,0,1,.69-2.38c1.93,3.23,7.68,5.58,14.48,5.58s12.55-2.35,14.47-5.58Zm-9-20-.18,2-7.45-.65a6.8,6.8,0,0,1,1.28,2.68l-1.79-.16a6,6,0,0,0-.81-1.75A3.61,3.61,0,0,0,80,92.05l.14-1.6,10.36.9Zm-5.48-3.09c6.88,0,12.46,2.19,12.46,4.89S91.94,98,85.06,98s-12.47-2.2-12.47-4.89,5.58-4.89,12.47-4.89Zm0-1.63c8.37,0,15.17,3.57,15.17,8s-6.8,8-15.17,8-15.17-3.57-15.17-8,6.79-8,15.17-8Zm14.52,15.42a4.51,4.51,0,0,1,.65,2.28c0,4.39-6.8,8-15.17,8s-15.17-3.56-15.17-8a4.47,4.47,0,0,1,.64-2.28c1.87,3.27,7.66,5.67,14.53,5.67s12.65-2.4,14.52-5.67Zm-43-4-.14,1.61-6.08-.53a5.51,5.51,0,0,1,1,2.18L50,101.23a4.59,4.59,0,0,0-.66-1.43,3,3,0,0,0-1.26-1.13l.11-1.31,8.45.74Zm-4.47-2.53c5.62,0,10.17,1.79,10.17,4s-4.55,4-10.17,4S42,101.76,42,99.56s4.55-4,10.17-4Zm0-1.32c6.83,0,12.38,2.91,12.38,6.49s-5.55,6.49-12.38,6.49-12.38-2.91-12.38-6.49,5.54-6.49,12.38-6.49ZM64,106.83a3.81,3.81,0,0,1,.52,1.86c0,3.58-5.55,6.49-12.38,6.49s-12.38-2.91-12.38-6.49a3.68,3.68,0,0,1,.52-1.86c1.53,2.67,6.26,4.63,11.86,4.63s10.33-2,11.86-4.63ZM44.13,28.38h5.1A1.73,1.73,0,0,1,51,30.11v6.45h6.46a1.74,1.74,0,0,1,1.73,1.73v5.09a1.74,1.74,0,0,1-1.73,1.73H51v6.31a1.73,1.73,0,0,1-1.72,1.73h-5.1a1.73,1.73,0,0,1-1.72-1.73V45.11H36a1.74,1.74,0,0,1-1.73-1.73V38.29A1.74,1.74,0,0,1,36,36.56h6.46V30.11a1.72,1.72,0,0,1,1.72-1.73ZM6.21,12.44h14.9v7.83H12.42a5.31,5.31,0,0,0-5.25,5.25v79.41a5.29,5.29,0,0,0,5.25,5.25H33.35a10.43,10.43,0,0,0,.67,2.4,8.4,8.4,0,0,0-.34,1v0a9.72,9.72,0,0,0-.3,4.35H6.21A6.24,6.24,0,0,1,0,111.74V18.65a6.22,6.22,0,0,1,6.21-6.21Zm80,67.7V25.52a5.29,5.29,0,0,0-5.24-5.25H72.26V12.44H87.15a6.24,6.24,0,0,1,6.21,6.21V81.16a32.63,32.63,0,0,0-7.18-1Zm-68-16.72H77v4.32H18.2V63.42Zm.86,26.83H40.69l-.3.15a14.78,14.78,0,0,0-5.07,4.17H19.06V90.25Zm-.86-13H77v3.86c-.55.14-1.09.29-1.61.46H18.2V77.23Zm24-64.3a6.92,6.92,0,0,0,2.51,2.18,4.63,4.63,0,0,0,2.45,0A6.8,6.8,0,0,0,50.12,12a5.73,5.73,0,0,0,.1-1,4.2,4.2,0,1,0-8.38,0,4.79,4.79,0,0,0,.39,1.94Z"></path>
  </symbol>
  <symbol xmlns="http://www.w3.org/2000/svg" viewBox="0 0 50 50" id="editclaim">
    <g>
	   <path d="M8.793 14h22v2h-22zM8.793 20h22v2h-22zM8.793 26h17v2h-17zM8.793 32h12v2h-12zM8.793 38h12v2h-12z"></path><path d="M38.793 18.586v-10L31.207 1H.793v48h38V31.414L49.207 21l-6.414-6.414-4 4zm-1 3.828L41.379 26l-12 12h-3.586v-3.586l12-12zm-6-18L35.379 8h-3.586V4.414zm5 42.586h-34V3h27v7h7v10.586l-13 13V40h6.414l6.586-6.586V47zm6-22.414L39.207 21l3.586-3.586L46.379 21l-3.586 3.586z"></path>
	</g>
  </symbol>
  <symbol id="view" xmlns="http://www.w3.org/2000/svg" x="0px" y="0px" enable-background="new 0 0 64 64" xml:space="preserve" viewBox="0 0 64 64">
    <g>
      <path d="M63,30.1C52.9,18.2,42.2,12,32,12c-10.2,0-20.9,6.2-31,18.1c-1,1.1-1,2.8,0,3.9C11.1,45.8,21.8,52,32,52
		c10.2,0,20.9-6.2,31-18.1C63.9,32.8,63.9,31.2,63,30.1z M32,48c-8.7,0-18.4-5.7-27.4-16c9-10.3,18.7-16,27.4-16
		c8.7,0,18.4,5.7,27.4,16C50.4,42.3,40.7,48,32,48z"></path>
      <path d="M32,20c-6.6,0-12,5.4-12,12s5.4,12,12,12s12-5.4,12-12S38.6,20,32,20z M32,40c-4.4,0-8-3.6-8-8s3.6-8,8-8s8,3.6,8,8
		S36.4,40,32,40z"></path>
    </g>
  </symbol>
  <symbol id="delete" xmlns="http://www.w3.org/2000/svg" viewBox="0 0 24 24">
  <g stroke-width="2" fill="none">
	<path d="M4 7H20" stroke-linecap="round" stroke-linejoin="round"/> 
	<path d="M6 10L7.70141 19.3578C7.87432 20.3088 8.70258 21 9.66915 21H14.3308C15.2974 21 16.1257 20.3087 16.2986 19.3578L18 10"/>
	<path d="M9 5C9 3.89543 9.89543 3 11 3H13C14.1046 3 15 3.89543 15 5V7H9V5Z" stroke-linecap="round" stroke-linejoin="round"/>
  </g>
  </symbol>
  <symbol id="photo" xmlns="http://www.w3.org/2000/svg" viewBox="0 0 24 24" fill="none">
  <g stroke-width="1.5" > 
	<path d="M4.02693 18.329C4.18385 19.277 5.0075 20 6 20H18C19.1046 20 20 19.1046 20 18V14.1901M4.02693 18.329C4.00922 18.222 4 18.1121 4 18V6C4 4.89543 4.89543 4 6 4H18C19.1046 4 20 4.89543 20 6V14.1901M4.02693 18.329L7.84762 14.5083C8.52765 13.9133 9.52219 13.8482 10.274 14.3494L10.7832 14.6888C11.5078 15.1719 12.4619 15.1305 13.142 14.5865L15.7901 12.4679C16.4651 11.9279 17.4053 11.8856 18.1228 12.3484C18.2023 12.3997 18.2731 12.4632 18.34 12.5302L20 14.1901M11 9C11 10.1046 10.1046 11 9 11C7.89543 11 7 10.1046 7 9C7 7.89543 7.89543 7 9 7C10.1046 7 11 7.89543 11 9Z" stroke-linecap="round" stroke-linejoin="round"></path>
  </g>
  </symbol>
  <symbol id="uploadphoto" xmlns="http://www.w3.org/2000/svg" viewBox="0 0 24 24" fill="none">
  <g stroke-width="2" stroke-linecap="round" stroke-linejoin="round">
	<path d="M13 4H8.8C7.11984 4 6.27976 4 5.63803 4.32698C5.07354 4.6146 4.6146 5.07354 4.32698 5.63803C4 6.27976 4 7.11984 4 8.8V15.2C4 16.8802 4 17.7202 4.32698 18.362C4.6146 18.9265 5.07354 19.3854 5.63803 19.673C6.27976 20 7.11984 20 8.8 20H15.2C16.8802 20 17.7202 20 18.362 19.673C18.9265 19.3854 19.3854 18.9265 19.673 18.362C20 17.7202 20 16.8802 20 15.2V11"></path>
	<path d="M4 16L8.29289 11.7071C8.68342 11.3166 9.31658 11.3166 9.70711 11.7071L13 15M13 15L15.7929 12.2071C16.1834 11.8166 16.8166 11.8166 17.2071 12.2071L20 15M13 15L15.25 17.25"></path>
	<path d="M18 8V3M18 3L16 5M18 3L20 5"></path>
  </g>
  </symbol>
  <symbol id="downloadphoto" xmlns="http://www.w3.org/2000/svg" viewBox="0 0 24 24" fill="none">
  <g stroke-width="2" stroke-linecap="round" stroke-linejoin="round">
	<path d="M13 4H8.8C7.11984 4 6.27976 4 5.63803 4.32698C5.07354 4.6146 4.6146 5.07354 4.32698 5.63803C4 6.27976 4 7.11984 4 8.8V15.2C4 16.8802 4 17.7202 4.32698 18.362C4.6146 18.9265 5.07354 19.3854 5.63803 19.673C6.27976 20 7.11984 20 8.8 20H15.2C16.8802 20 17.7202 20 18.362 19.673C18.9265 19.3854 19.3854 18.9265 19.673 18.362C20 17.7202 20 16.8802 20 15.2V11"></path>
	<path d="M4 16L8.29289 11.7071C8.68342 11.3166 9.31658 11.3166 9.70711 11.7071L13 15M13 15L15.7929 12.2071C16.1834 11.8166 16.8166 11.8166 17.2071 12.2071L20 15M13 15L15.25 17.25"></path>
	<path d="M18 3V8M18 8L16 6M18 8L20 6"></path>
  </g>
  </symbol>
  <symbol id="addphoto" xmlns="http://www.w3.org/2000/svg" viewBox="0 0 24 24" fill="none">
  <g stroke-width="1.5" stroke-linecap="round" stroke-linejoin="round">
	<path d="M9 10C10.1046 10 11 9.10457 11 8C11 6.89543 10.1046 6 9 6C7.89543 6 7 6.89543 7 8C7 9.10457 7.89543 10 9 10Z"/>
	<path d="M13 2H9C4 2 2 4 2 9V15C2 20 4 22 9 22H15C20 22 22 20 22 15V10"/>
	<path d="M15.75 5H21.25"/>
	<path d="M18.5 7.75V2.25"/>
	<path d="M2.67004 18.9501L7.60004 15.6401C8.39004 15.1101 9.53004 15.1701 10.24 15.7801L10.57 16.0701C11.35 16.7401 12.61 16.7401 13.39 16.0701L17.55 12.5001C18.33 11.8301 19.59 11.8301 20.37 12.5001L22 13.9001"/>
  </g>
  </symbol>
  <symbol id="editphoto" xmlns="http://www.w3.org/2000/svg" viewBox="0 0 24 24" fill="none">
  <g stroke-width="1.5" stroke-linecap="round" stroke-linejoin="round">
	<path d="M9 10C10.1046 10 11 9.10457 11 8C11 6.89543 10.1046 6 9 6C7.89543 6 7 6.89543 7 8C7 9.10457 7.89543 10 9 10Z"/>
	<path d="M13 2H9C4 2 2 4 2 9V15C2 20 4 22 9 22H15C20 22 22 20 22 15V10"/>
	<path d="M19.1399 2.58991L15.5099 6.21991C15.3699 6.35991 15.2299 6.62991 15.2099 6.82991L15.0099 8.21991C14.9399 8.71991 15.2899 9.06991 15.7899 8.99991L17.1799 8.79991C17.3699 8.76991 17.6499 8.63991 17.7899 8.49991L21.4199 4.86991C22.0499 4.23991 22.3399 3.51991 21.4199 2.59991C20.4899 1.65991 19.7699 1.95991 19.1399 2.58991Z"/>
	<path d="M18.6201 3.11011C18.9301 4.21011 19.7901 5.07011 20.8901 5.38011"/>
	<path d="M2.66992 18.9501L7.59992 15.6401C8.38992 15.1101 9.52992 15.1701 10.2399 15.7801L10.5699 16.0701C11.3499 16.7401 12.6099 16.7401 13.3899 16.0701L17.5499 12.5001C18.3299 11.8301 19.5899 11.8301 20.3699 12.5001L21.9999 13.9001"/>
  </g>
  </symbol>
  <symbol id="deletephoto" xmlns="http://www.w3.org/2000/svg" viewBox="0 0 24 24" fill="none">
  <g stroke-width="2" stroke-linecap="round" stroke-linejoin="round">
	<path d="M13 4H8.8C7.11984 4 6.27976 4 5.63803 4.32698C5.07354 4.6146 4.6146 5.07354 4.32698 5.63803C4 6.27976 4 7.11984 4 8.8V15.2C4 16.8802 4 17.7202 4.32698 18.362C4.6146 18.9265 5.07354 19.3854 5.63803 19.673C6.27976 20 7.11984 20 8.8 20H15.2C16.8802 20 17.7202 20 18.362 19.673C18.9265 19.3854 19.3854 18.9265 19.673 18.362C20 17.7202 20 16.8802 20 15.2V11"></path>
	<path d="M4 16L8.29289 11.7071C8.68342 11.3166 9.31658 11.3166 9.70711 11.7071L13 15M13 15L15.7929 12.2071C16.1834 11.8166 16.8166 11.8166 17.2071 12.2071L20 15M13 15L15.25 17.25"></path>
	<path d="M17 3L19 5M21 7L19 5M19 5L21 3M19 5L17 7"></path>
  </g>
  </symbol>
  <symbol id="checkphoto" xmlns="http://www.w3.org/2000/svg" viewBox="0 0 24 24" fill="none">
  <g stroke-width="2" stroke-linecap="round" stroke-linejoin="round">
	<path d="M12 4H8.8C7.11984 4 6.27976 4 5.63803 4.32698C5.07354 4.6146 4.6146 5.07354 4.32698 5.63803C4 6.27976 4 7.11984 4 8.8V15.2C4 16.8802 4 17.7202 4.32698 18.362C4.6146 18.9265 5.07354 19.3854 5.63803 19.673C6.27976 20 7.11984 20 8.8 20H15.2C16.8802 20 17.7202 20 18.362 19.673C18.9265 19.3854 19.3854 18.9265 19.673 18.362C20 17.7202 20 16.8802 20 15.2V11"></path>
	<path d="M4 16L8.29289 11.7071C8.68342 11.3166 9.31658 11.3166 9.70711 11.7071L13 15M13 15L15.7929 12.2071C16.1834 11.8166 16.8166 11.8166 17.2071 12.2071L20 15M13 15L15.25 17.25"></path>
	<path d="M15 6L17 8L20.5 4.5"></path>
  </g>
  </symbol>
  <symbol id="removephoto" xmlns="http://www.w3.org/2000/svg" viewBox="0 0 24 24" fill="none">
  <g stroke-width="2" stroke-linecap="round" stroke-linejoin="round">
	<path d="M12 4H8.8C7.11984 4 6.27976 4 5.63803 4.32698C5.07354 4.6146 4.6146 5.07354 4.32698 5.63803C4 6.27976 4 7.11984 4 8.8V15.2C4 16.8802 4 17.7202 4.32698 18.362C4.6146 18.9265 5.07354 19.3854 5.63803 19.673C6.27976 20 7.11984 20 8.8 20H15.2C16.8802 20 17.7202 20 18.362 19.673C18.9265 19.3854 19.3854 18.9265 19.673 18.362C20 17.7202 20 16.8802 20 15.2V12"></path>
	<path d="M15.8787 3.87868C15.3358 4.42157 15 5.17157 15 6C15 7.65685 16.3431 9 18 9C18.8284 9 19.5784 8.66421 20.1213 8.12132M15.8787 3.87868C16.4216 3.33579 17.1716 3 18 3C19.6569 3 21 4.34315 21 6C21 6.82843 20.6642 7.57843 20.1213 8.12132M15.8787 3.87868L18 6L20.1213 8.12132"></path>
	<path d="M4 16L8.29289 11.7071C8.68342 11.3166 9.31658 11.3166 9.70711 11.7071L13 15M13 15L15.7929 12.2071C16.1834 11.8166 16.8166 11.8166 17.2071 12.2071L20 15M13 15L15.25 17.25"></path>
  </g>
  </symbol>
  <symbol id="uploadfile" xmlns="http://www.w3.org/2000/svg" viewBox="0 0 24 24" fill="none">
  <g stroke-width="2" stroke-linecap="round" stroke-linejoin="round">
	<path d="M13.5 3H12H7C5.89543 3 5 3.89543 5 5V19C5 20.1046 5.89543 21 7 21H7.5M13.5 3L19 8.625M13.5 3V7.625C13.5 8.17728 13.9477 8.625 14.5 8.625H19M19 8.625V9.75V12V19C19 20.1046 18.1046 21 17 21H16.5"></path>
	<path d="M12 21L12 13M12 13L14.5 15.5M12 13L9.5 15.5"></path>
  </g>
  </symbol>
  <symbol version="1.0" xmlns="http://www.w3.org/2000/svg" viewBox="0 0 50 50" id="totalclaims">
    <g transform="translate(0.000000,50.000000) scale(0.100000,-0.100000)">
      <path d="M155 456 c-27 -13 -60 -34 -72 -47 -44 -49 -82 -169 -53 -169 6 0 10 12 10 28 1 38 32 102 66 134 81 75 203 76 282 3 l37 -34 -27 -1 c-16 0 -28 -4 -28 -10 0 -5 20 -10 45 -10 l45 0 0 45 c0 25 -4 45 -10 45 -5 0 -10 -12 -10 -27 l0 -27 -27 27 c-70 66 -172 84 -258 43z"></path>
      <path d="M175 421 c-89 -41 -136 -143 -105 -225 7 -20 16 -26 40 -26 35 0 49 -23 31 -52 -10 -17 -7 -21 31 -38 52 -24 97 -25 146 -5 92 39 144 145 112 229 -7 20 -16 26 -40 26 -35 0 -49 23 -31 52 10 17 7 21 -31 38 -54 24 -102 25 -153 1z m85 -36 c0 -8 5 -15 10 -15 15 0 50 -38 50 -55 0 -22 -14 -18 -25 8 -20 44 -100 29 -93 -17 2 -15 16 -25 49 -36 59 -19 79 -36 79 -67 0 -24 -40 -73 -60 -73 -5 0 -10 -7 -10 -15 0 -8 -4 -15 -10 -15 -5 0 -10 7 -10 15 0 8 -5 15 -10 15 -19 0 -60 48 -60 70 0 29 13 24 30 -13 18 -39 61 -48 91 -21 39 35 18 63 -69 95 -52 19 -53 88 -2 104 11 3 20 13 20 21 0 8 5 14 10 14 6 0 10 -7 10 -15z"></path>
      <path d="M460 243 c0 -40 -23 -96 -53 -130 -78 -89 -210 -97 -295 -18 l-37 34 28 1 c15 0 27 5 27 10 0 6 -20 10 -45 10 l-45 0 0 -45 c0 -25 5 -45 10 -45 6 0 10 12 10 27 l0 27 28 -27 c39 -37 110 -67 162 -67 52 0 134 35 167 71 44 49 82 169 53 169 -5 0 -10 -8 -10 -17z"></path>
    </g>
  </symbol>
  <symbol xmlns="http://www.w3.org/2000/svg" viewBox="0 0 64 64" id="buyclaims">
    <g transform="translate(0.000000,64.000000) scale(0.100000,-0.100000)">
      <path d="M300 610 c0 -5 9 -10 20 -10 11 0 20 5 20 10 0 6 -9 10 -20 10 -11 0 -20 -4 -20 -10z"></path>
      <path d="M230 600 c-8 -5 -11 -12 -8 -16 10 -9 38 3 38 16 0 12 -10 13 -30 0z"></path>
      <path d="M380 601 c0 -14 18 -23 31 -15 8 4 7 9 -2 15 -18 11 -29 11 -29 0z"></path>
      <path d="M170 555 c-18 -21 -3 -32 16 -13 10 9 12 18 6 22 -5 3 -15 -1 -22 -9z"></path>
      <path d="M286 554 c-19 -18 -21 -45 -4 -62 9 -9 9 -12 0 -12 -7 0 -21 -9 -32 -20 -16 -16 -20 -33 -20 -90 l0 -70 48 0 c45 0 48 2 57 33 7 21 20 37 42 47 22 10 33 22 33 38 0 23 -32 62 -52 62 -9 0 -9 3 0 12 26 26 1 78 -38 78 -10 0 -26 -7 -34 -16z m44 -104 c0 -5 -4 -10 -10 -10 -5 0 -10 5 -10 10 0 6 5 10 10 10 6 0 10 -4 10 -10z m0 -40 c0 -5 -4 -10 -10 -10 -5 0 -10 5 -10 10 0 6 5 10 10 10 6 0 10 -4 10 -10z"></path>
      <path d="M446 562 c-7 -12 22 -38 31 -28 4 3 0 14 -9 22 -9 10 -18 12 -22 6z"></path>
      <path d="M130 480 c0 -11 5 -20 10 -20 6 0 10 9 10 20 0 11 -4 20 -10 20 -5 0 -10 -9 -10 -20z"></path>
      <path d="M490 480 c0 -11 5 -20 10 -20 6 0 10 9 10 20 0 11 -4 20 -10 20 -5 0 -10 -9 -10 -20z"></path>
      <path d="M120 400 c0 -11 5 -20 10 -20 6 0 10 9 10 20 0 11 -4 20 -10 20 -5 0 -10 -9 -10 -20z"></path>
      <path d="M500 400 c0 -11 5 -20 10 -20 6 0 10 9 10 20 0 11 -4 20 -10 20 -5 0 -10 -9 -10 -20z"></path>
      <path d="M362 357 c-28 -30 -28 -68 1 -95 30 -28 68 -28 95 1 28 30 28 68 -1 95 -30 28 -68 28 -95 -1z m76 -16 c3 -9 -2 -11 -17 -6 -12 3 -21 2 -21 -4 0 -5 9 -13 21 -16 30 -10 22 -50 -10 -50 -13 0 -26 6 -29 14 -3 9 1 11 17 6 12 -3 21 -2 21 4 0 5 -9 13 -20 16 -20 6 -27 35 -13 49 11 11 46 2 51 -13z"></path>
      <path d="M27 354 c-4 -4 -7 -53 -7 -109 0 -101 0 -103 35 -148 19 -25 35 -53 35 -61 0 -13 12 -16 55 -16 l55 0 0 45 c0 35 -6 51 -31 80 -17 19 -35 35 -40 35 -17 0 -9 -34 14 -59 l22 -26 -28 25 c-23 20 -28 31 -24 55 2 17 -3 64 -12 105 -14 68 -18 75 -41 78 -14 2 -29 0 -33 -4z"></path>
      <path d="M555 348 c-14 -38 -33 -156 -29 -178 4 -19 -2 -32 -22 -50 l-28 -25 22 29 c44 58 22 76 -27 21 -25 -29 -31 -45 -31 -80 l0 -45 55 0 c43 0 55 3 55 16 0 8 16 36 35 61 l36 47 -3 105 -3 106 -28 3 c-16 2 -29 -2 -32 -10z"></path>
      <path d="M142 329 c2 -7 10 -15 17 -17 8 -3 12 1 9 9 -2 7 -10 15 -17 17 -8 3 -12 -1 -9 -9z"></path>
      <path d="M190 271 c0 -11 31 -24 39 -16 3 3 -1 10 -9 15 -19 12 -30 12 -30 1z"></path>
      <path d="M260 241 c0 -11 31 -24 39 -16 3 3 -1 10 -9 15 -19 12 -30 12 -30 1z"></path>
    </g>
  </symbol>
  <symbol xmlns="http://www.w3.org/2000/svg" viewBox="0 0 64 64" id="sellclaims">
    <g transform="translate(0.000000,64.000000) scale(0.100000,-0.100000)">
      <path d="M134 627 c-2 -7 -3 -76 -2 -152 l3 -140 210 0 210 0 0 150 0 150 -208 3 c-164 2 -209 0 -213 -11z m284 -69 c3 -16 -6 -18 -72 -18 -57 0 -76 3 -76 13 0 24 13 28 79 25 53 -2 66 -6 69 -20z"></path>
      <path d="M75 254 c-33 -13 -63 -28 -68 -33 -8 -8 43 -140 64 -165 4 -4 21 0 38 10 l31 18 85 -42 c47 -23 96 -42 108 -42 13 0 86 42 163 92 117 78 139 97 139 118 0 44 -37 37 -132 -24 -86 -56 -86 -56 -162 -55 -42 0 -85 4 -96 8 -12 5 17 8 69 7 75 -1 90 2 100 17 15 25 -10 43 -73 51 -27 3 -55 13 -62 22 -40 49 -114 56 -204 18z"></path>
      <path d="M382 253 c-24 -14 -41 -27 -40 -29 2 -2 19 -4 39 -5 23 -2 46 5 72 22 65 45 1 56 -71 12z"></path>
      <path d="M470 240 c-35 -23 -44 -35 -42 -52 2 -13 5 -25 7 -26 3 -3 114 68 135 85 7 6 -23 23 -40 23 -8 0 -35 -14 -60 -30z"></path>
    </g>
  </symbol>
  <symbol xmlns="http://www.w3.org/2000/svg" id="confirm" x="0px" y="0px" enable-background="new 0 0 122.881 122.88" xml:space="preserve" viewBox="0 0 122.881 122.88">
    <g>
      <path d="M61.44,0c16.966,0,32.326,6.877,43.445,17.995s17.996,26.479,17.996,43.444c0,16.967-6.877,32.327-17.996,43.445 S78.406,122.88,61.44,122.88c-16.966,0-32.326-6.877-43.444-17.995S0,78.406,0,61.439c0-16.965,6.877-32.326,17.996-43.444 S44.474,0,61.44,0L61.44,0z M34.556,67.179c-1.313-1.188-1.415-3.216-0.226-4.529c1.188-1.313,3.216-1.415,4.529-0.227L52.3,74.611 l31.543-33.036c1.223-1.286,3.258-1.336,4.543-0.114c1.285,1.223,1.336,3.257,0.113,4.542L54.793,81.305l-0.004-0.004 c-1.195,1.257-3.182,1.338-4.475,0.168L34.556,67.179L34.556,67.179z M100.33,22.55C90.377,12.598,76.627,6.441,61.44,6.441 c-15.188,0-28.938,6.156-38.89,16.108c-9.953,9.953-16.108,23.702-16.108,38.89c0,15.188,6.156,28.938,16.108,38.891 c9.952,9.952,23.702,16.108,38.89,16.108c15.187,0,28.937-6.156,38.89-16.108c9.953-9.953,16.107-23.702,16.107-38.891 C116.438,46.252,110.283,32.502,100.33,22.55L100.33,22.55z"></path>
    </g>
  </symbol>
  <symbol xmlns="http://www.w3.org/2000/svg" id="cancel" x="0px" y="0px" enable-background="new 0 0 122.881 122.88" xml:space="preserve" viewBox="0 0 122.881 122.88">
    <g>
      <path d="M61.44,0c16.966,0,32.326,6.877,43.445,17.996c11.119,11.118,17.996,26.479,17.996,43.444 c0,16.967-6.877,32.326-17.996,43.444C93.766,116.003,78.406,122.88,61.44,122.88c-16.966,0-32.326-6.877-43.444-17.996 C6.877,93.766,0,78.406,0,61.439c0-16.965,6.877-32.326,17.996-43.444C29.114,6.877,44.474,0,61.44,0L61.44,0z M80.16,37.369 c1.301-1.302,3.412-1.302,4.713,0c1.301,1.301,1.301,3.411,0,4.713L65.512,61.444l19.361,19.362c1.301,1.301,1.301,3.411,0,4.713 c-1.301,1.301-3.412,1.301-4.713,0L60.798,66.157L41.436,85.52c-1.301,1.301-3.412,1.301-4.713,0c-1.301-1.302-1.301-3.412,0-4.713 l19.363-19.362L36.723,42.082c-1.301-1.302-1.301-3.412,0-4.713c1.301-1.302,3.412-1.302,4.713,0l19.363,19.362L80.16,37.369 L80.16,37.369z M100.172,22.708C90.26,12.796,76.566,6.666,61.44,6.666c-15.126,0-28.819,6.13-38.731,16.042 C12.797,32.62,6.666,46.314,6.666,61.439c0,15.126,6.131,28.82,16.042,38.732c9.912,9.911,23.605,16.042,38.731,16.042 c15.126,0,28.82-6.131,38.732-16.042c9.912-9.912,16.043-23.606,16.043-38.732C116.215,46.314,110.084,32.62,100.172,22.708 L100.172,22.708z"></path>
    </g>
  </symbol>
  <symbol xmlns="http://www.w3.org/2000/svg" id="balancesheet" viewBox="0 0 32 32">
    <g>
      <path d="M25,2H22a2,2,0,0,0-2-2H12a2,2,0,0,0-2,2H7A3,3,0,0,0,4,5V29a3,3,0,0,0,3,3H25a3,3,0,0,0,3-3V5A3,3,0,0,0,25,2ZM12,2h8V3h0V4H12ZM26,29a1,1,0,0,1-1,1H7a1,1,0,0,1-1-1V5A1,1,0,0,1,7,4h3a2,2,0,0,0,2,2h8a2,2,0,0,0,2-2h3a1,1,0,0,1,1,1Z"></path>
      <path d="M15,19a1,1,0,0,0,2,0v-.18A3,3,0,0,0,16,13a1,1,0,0,1,0-2h2a1,1,0,0,0,0-2H17a1,1,0,0,0-2,0v.18A3,3,0,0,0,16,15a1,1,0,0,1,0,2H14a1,1,0,0,0,0,2Z"></path>
      <path d="M11,22H9a1,1,0,0,0,0,2h2a1,1,0,0,0,0-2Z"></path>
      <path d="M23,22H15a1,1,0,0,0,0,2h8a1,1,0,0,0,0-2Z"></path>
      <path d="M11,26H9a1,1,0,0,0,0,2h2a1,1,0,0,0,0-2Z"></path>
      <path d="M23,26H15a1,1,0,0,0,0,2h8a1,1,0,0,0,0-2Z"></path>
    </g>
  </symbol>
  <symbol xmlns="http://www.w3.org/2000/svg" id="report" viewBox="-3.5 0 19 19">
    <g>
      <path d="M10.05 3.828a1.112 1.112 0 0 1 1.11 1.108v10.562a1.112 1.112 0 0 1-1.11 1.108h-8.1a1.112 1.112 0 0 1-1.11-1.108V4.936a1.112 1.112 0 0 1 1.11-1.108h.415v1.108h-.414l-.002.002v10.558l.002.002h8.098l.002-.002V4.938l-.002-.002h-.414V3.828h.416zm-.98 4.076H2.82v1.108h6.25zm0 2.337H2.82v1.108h6.25zm0 2.337H2.82v1.108h6.25zm-.543-8.935v1.25a.476.476 0 0 1-.475.476H3.948a.476.476 0 0 1-.475-.475v-1.25a.476.476 0 0 1 .475-.476h.697V1.87a.476.476 0 0 1 .475-.475h1.76a.476.476 0 0 1 .475.475v1.3h.697a.476.476 0 0 1 .475.474zM6.55 2.67a.554.554 0 1 0-.554.554.554.554 0 0 0 .554-.554z"></path>
    </g>
  </symbol>
  <symbol xmlns="http://www.w3.org/2000/svg" id="claim" viewBox="0 0 512 512">
    <g stroke-width="1" fill-rule="evenodd" transform="translate(64.000000, 42.666667)"> 
      <path d="M222.169889,-2.13162821e-14 L341.333333,119.163444 L341.33483,176.97033 C328.256357,173.604093 313.822592,171.549882 298.666435,170.895226 L298.666667,136.853333 L204.48,42.6666667 L42.6666667,42.6666667 L42.6666667,384 L170.666,383.999 L170.666,426.666 L1.42108547e-14,426.666667 L1.42108547e-14,-2.13162821e-14 L222.169889,-2.13162821e-14 Z M383.580992,358.666259 C383.810933,359.752636 383.946668,360.85172 383.987139,361.961095 L384,362.666667 L384,384 C384,407.564149 341.019336,426.666667 288,426.666667 C235.510857,426.666667 192.860617,407.944289 192.012861,384.705571 L192,384 L192,362.666667 L192.012861,361.961095 C192.053238,360.854279 192.188442,359.757708 192.415018,358.672917 C198.29503,363.09162 205.45277,367.167081 213.74666,370.656167 C233.105443,378.800048 259.209222,384 288,384 C317.932371,384 344.956571,378.371188 364.546538,369.664536 C371.868861,366.41017 378.242988,362.682541 383.580992,358.666259 Z M383.580992,294.666259 C383.810933,295.752636 383.946668,296.85172 383.987139,297.961095 L384,298.666667 L384,320 C384,343.564149 341.019336,362.666667 288,362.666667 C235.510857,362.666667 192.860617,343.944289 192.012861,320.705571 L192,320 L192,298.666667 L192.012861,297.961095 C192.053238,296.854279 192.188442,295.757708 192.415018,294.672917 C198.29503,299.09162 205.45277,303.167081 213.74666,306.656167 C233.105443,314.800048 259.209222,320 288,320 C317.932371,320 344.956571,314.371188 364.546538,305.664536 C371.868861,302.41017 378.242988,298.682541 383.580992,294.666259 Z M288,192 C340.489143,192 383.139383,210.722377 383.987139,233.961095 L384,234.666667 L384,256 C384,279.564149 341.019336,298.666667 288,298.666667 C235.510857,298.666667 192.860617,279.944289 192.012861,256.705571 L192,256 L192,234.666667 L192.142049,232.325666 C194.876532,209.850241 236.747975,192 288,192 Z"> </path>
    </g>
  </symbol>
  <symbol xmlns="http://www.w3.org/2000/svg" preserveAspectRatio="xMidYMid meet" viewBox="0 0 200 200" id="addprice">
    <g transform="translate(0,200) scale(0.100000,-0.100000)">
      <path d="M830 1816 c-266 -61 -470 -226 -586 -469 -56 -120 -69 -184 -69 -347 0 -163 13 -227 70 -347 106 -224 306 -394 540 -459 70 -19 294 -30 345 -17 l35 9 3 82 c2 48 -1 82 -7 82 -5 0 -44 -5 -85 -11 -135 -18 -295 17 -423 92 -72 44 -178 150 -222 222 -136 229 -128 500 21 723 86 128 232 230 388 271 85 22 235 22 320 0 143 -38 281 -128 366 -240 113 -149 156 -319 131 -515 l-8 -63 82 3 83 3 9 35 c13 51 2 275 -17 345 -62 223 -225 422 -430 525 -56 27 -128 57 -161 66 -79 22 -310 28 -385 10z"></path>
      <path d="M980 1472 l0 -57 -49 -18 c-96 -34 -148 -125 -138 -240 9 -101 47 -145 195 -227 64 -35 87 -70 87 -132 0 -41 -4 -53 -24 -69 -54 -44 -117 -4 -128 80 l-6 42 -76 -3 -76 -3 3 -45 c5 -60 38 -135 73 -164 15 -13 49 -32 74 -41 l45 -18 0 -53 0 -54 45 0 45 0 0 53 0 53 55 23 c88 36 126 100 126 207 0 113 -37 168 -163 241 -97 56 -118 81 -118 142 0 72 42 112 87 83 16 -10 43 -75 43 -102 0 -18 6 -20 80 -20 l81 0 -6 38 c-20 112 -62 177 -135 206 l-40 16 0 60 0 60 -40 0 -40 0 0 -58z"></path>
      <path d="M1587 663 c-4 -3 -7 -59 -7 -124 l0 -118 -122 -3 -123 -3 -3 -82 -3 -83 126 0 125 0 0 -125 0 -125 85 0 85 0 0 125 0 125 125 0 125 0 0 85 0 85 -125 0 -125 0 0 125 0 125 -78 0 c-43 0 -82 -3 -85 -7z"></path>
    </g>
  </symbol>
  <symbol xmlns="http://www.w3.org/2000/svg" viewBox="0 0 21 21" id="viewclaim">
    <g stroke-width= "0">
      <path d="M2 0H18V12H16V2H2V18H10V20H0V0H2ZM4 4H14V6H4V4ZM14 8H4V10H14V8ZM4 12H11V14H4V12Z"/>
      <path fill-rule="evenodd" clip-rule="evenodd" d="M12.6098 18.7885C11.8373 18.1342 11.2855 17.3863 11.0267 17C11.2855 16.6137 11.8373 15.8658 12.6098 15.2115C13.4074 14.5359 14.3922 14 15.5 14C16.6078 14 17.5927 14.5359 18.3902 15.2115C19.1627 15.8658 19.7145 16.6137 19.9734 17C19.7145 17.3863 19.1627 18.1342 18.3902 18.7885C17.5927 19.4641 16.6078 20 15.5 20C14.3922 20 13.4074 19.4641 12.6098 18.7885ZM15.5 13C14.0533 13 12.8409 13.6973 11.9488 14.453C11.0534 15.2114 10.432 16.0688 10.1563 16.4849C9.94791 16.7993 9.94791 17.2007 10.1563 17.5151C10.432 17.9312 11.0534 18.7886 11.9488 19.5471C12.8409 20.3027 14.0533 21 15.5 21C16.9467 21 18.1591 20.3027 19.0513 19.5471C19.9466 18.7886 20.568 17.9312 20.8437 17.5151C21.0521 17.2007 21.0521 16.7993 20.8437 16.4849C20.568 16.0688 19.9466 15.2114 19.0513 14.453C18.1591 13.6973 16.9467 13 15.5 13ZM14.4856 17C14.4856 16.4477 14.9398 16 15.5 16C16.0602 16 16.5143 16.4477 16.5143 17C16.5143 17.5523 16.0602 18 15.5 18C14.9398 18 14.4856 17.5523 14.4856 17ZM15.5 15C14.3796 15 13.4713 15.8954 13.4713 17C13.4713 18.1046 14.3796 19 15.5 19C16.6204 19 17.5287 18.1046 17.5287 17C17.5287 15.8954 16.6204 15 15.5 15Z"/>
    </g>
  </symbol>
  <symbol xmlns="http://www.w3.org/2000/svg" viewBox="0 0 48 48" id="password">
    <g>
      <path d="M39,18H35V13A11,11,0,0,0,24,2H22A11,11,0,0,0,11,13v5H7a2,2,0,0,0-2,2V44a2,2,0,0,0,2,2H39a2,2,0,0,0,2-2V20A2,2,0,0,0,39,18ZM15,13a7,7,0,0,1,7-7h2a7,7,0,0,1,7,7v5H15ZM37,42H9V22H37Z"></path>
      <circle cx="15" cy="32" r="3"></circle> 
      <circle cx="23" cy="32" r="3"></circle> 
      <circle cx="31" cy="32" r="3"></circle>
    </g>
  </symbol>
  <symbol xmlns="http://www.w3.org/2000/svg" id="profile" x="0px" y="0px" xml:space="preserve" viewBox="0 0 122.88 122.88">
    <g stroke-width= "5">
      <path d="M61.44,0c16.97,0,32.33,6.88,43.44,18c11.12,11.12,18,26.48,18,43.44c0,16.97-6.88,32.33-18,43.44 c-11.12,11.12-26.48,18-43.44,18S29.11,116,18,104.88C6.88,93.77,0,78.41,0,61.44C0,44.47,6.88,29.11,18,18 C29.11,6.88,44.47,0,61.44,0L61.44,0z M46.49,87.03c6,12.51,24.19,12.95,29.94,0.07c-1.57-1.59-2.73-3.28-3.88-4.97 c-0.19-0.28-0.38-0.55-0.57-0.83c-2.77,2.2-6.14,3.6-10.53,3.59c-4.73-0.01-8.29-1.82-11.21-4.49c-0.17-0.16-0.35-0.32-0.52-0.49 c-0.42,1.16-0.95,2.55-1.52,3.85C47.65,85.01,47.06,86.18,46.49,87.03L46.49,87.03z M92.66,107.83l1.36-14.48 c-5.03-0.98-10.42-2.04-15.99-5.25c-4.17,13.89-26.58,15.54-32.89,0.36c-5,2.52-10.09,3.96-15.89,4.85l1.97,15.17 c8.71,5.61,19.09,8.87,30.23,8.87C73,117.35,83.74,113.84,92.66,107.83L92.66,107.83z M16.56,94.79l0.24-0.14 c5.96-3.32,21.47-4.42,27.91-8.91c0.47-0.71,0.98-1.74,1.47-2.86c0.74-1.69,1.41-3.53,1.84-4.79c-1.8-2.12-3.34-4.51-4.82-6.87 l-4.88-7.76c-1.78-2.66-2.71-5.09-2.77-7.09c-0.03-0.94,0.13-1.79,0.48-2.54c0.36-0.79,0.92-1.44,1.68-1.95 c0.35-0.24,0.75-0.44,1.18-0.6c-0.32-4.21-0.43-9.51-0.23-13.95c0.1-1.05,0.31-2.11,0.6-3.16c1.25-4.45,4.37-8.04,8.24-10.5 c2.13-1.36,4.47-2.38,6.91-3.07c1.55-0.44-1.32-5.39,0.28-5.56c7.75-0.8,20.28,6.28,25.69,12.13c2.71,2.93,4.41,6.82,4.78,11.96 l-0.3,12.66v0c1.35,0.41,2.22,1.27,2.57,2.66c0.39,1.54-0.03,3.71-1.34,6.66l0,0c-0.02,0.05-0.05,0.11-0.08,0.16l-5.56,9.16 c-2.04,3.36-4.12,6.74-6.82,9.4c0.24,0.35,0.49,0.7,0.73,1.06c1.1,1.61,2.21,3.23,3.63,4.67c0.05,0.05,0.09,0.1,0.12,0.15 c6.4,4.52,21.98,5.62,27.96,8.95l0.24,0.14c6.93-9.31,11.03-20.85,11.03-33.35c0-15.44-6.26-29.42-16.38-39.53 C90.86,11.79,76.88,5.53,61.44,5.53c-15.44,0-29.42,6.26-39.53,16.38C11.79,32.02,5.53,46,5.53,61.44 C5.53,73.94,9.63,85.48,16.56,94.79L16.56,94.79z M41.71,53.54c-1.08,0.04-1.9,0.27-2.46,0.64c-0.32,0.21-0.55,0.49-0.7,0.81 c-0.17,0.36-0.24,0.8-0.23,1.31c0.04,1.48,0.82,3.42,2.32,5.66l0.02,0.03l0,0l4.88,7.76c1.96,3.11,4.01,6.28,6.56,8.61 c2.45,2.24,5.42,3.76,9.36,3.77c4.26,0.01,7.37-1.57,9.9-3.93c2.63-2.46,4.7-5.83,6.75-9.2l5.5-9.05c1.02-2.34,1.4-3.9,1.16-4.82 c-0.14-0.55-0.74-0.81-1.77-0.87c-0.22-0.01-0.44-0.01-0.67-0.01c-0.24,0.01-0.5,0.02-0.77,0.05c-0.15,0.01-0.29,0-0.42-0.03 c-0.49,0.03-0.99-0.01-1.51-0.08l1.88-8.33c-13.96,2.2-24.41-8.17-39.17-2.07l1.06,9.82C42.79,53.64,42.23,53.62,41.71,53.54 L41.71,53.54L41.71,53.54z"></path>
    </g>
  </symbol>
  <symbol id="logout" xmlns="http://www.w3.org/2000/svg" x="0px" y="0px" enable-background="new 0 0 89.149 122.88" xml:space="preserve" viewBox="0 0 89.149 122.88">
    <g stroke-width= "5">
      <path d="M79.128,64.598H40.069c-1.726,0-3.125-1.414-3.125-3.157c0-1.744,1.399-3.158,3.125-3.158h39.057L66.422,43.733 c-1.14-1.301-1.019-3.289,0.269-4.439c1.288-1.151,3.257-1.03,4.396,0.271l17.281,19.792c1.061,1.211,1.029,3.019-0.02,4.19 l-17.262,19.77c-1.14,1.302-3.108,1.423-4.396,0.271c-1.287-1.151-1.408-3.139-0.269-4.44L79.128,64.598L79.128,64.598z M42.396,116.674c1.689,0.409,2.727,2.11,2.318,3.799c-0.409,1.689-2.109,2.728-3.799,2.318c-3.801-0.922-7.582-1.671-11.052-2.358 C10.426,116.583,0,114.519,0,86.871V34.188C0,7.96,11.08,5.889,29.431,2.46c3.572-0.667,7.448-1.391,11.484-2.371 c1.689-0.409,3.39,0.629,3.799,2.319c0.408,1.689-0.629,3.39-2.318,3.799c-4.291,1.041-8.201,1.771-11.805,2.445 C15.454,11.48,6.315,13.188,6.315,34.188v52.683c0,22.467,8.643,24.179,24.756,27.37C34.453,114.911,38.138,115.642,42.396,116.674 L42.396,116.674z"></path>
    </g>
  </symbol>
</svg>